<svg height="496pt" viewBox="0 0 496 496" width="496pt" xmlns="http://www.w3.org/2000/svg"><g fill="#838f9b"><path d="m328.960938 408.800781c4.558593-5.679687 7.039062-12.722656 7.039062-20v-12.800781h152v40c0 13.28125-10.71875 24-24 24h-160zm0 0"/><path d="m488 128v24h-208v-24c0-13.28125 10.71875-24 24-24h160c13.28125 0 24 10.71875 24 24zm0 0"/><path d="m216 128v24h-208v-24c0-13.28125 10.71875-24 24-24h160c13.28125 0 24 10.71875 24 24zm0 0"/><path d="m167.039062 408.800781 24.960938 31.199219h-160c-13.28125 0-24-10.71875-24-24v-40h152v12.800781c0 7.277344 2.480469 14.320313 7.039062 20zm0 0"/></g><path d="m290.71875 240.238281c-2.640625-.476562-5.199219-.238281-7.519531.480469l-3.199219-.71875v-88h208v224h-152v-87.121094c0-8-5.441406-15.359375-13.28125-16.640625-10.078125-1.679687-18.71875 6.082031-18.71875 15.761719v-31.121094c0-8-5.441406-15.359375-13.28125-16.640625zm0 0" fill="#69d6f4"/><path d="m216 176 .878906 1.761719c-5.4375 2.71875-8.878906 8.71875-8.878906 15.117187v127.121094c0-11.039062-4.480469-21.039062-11.679688-28.320312-7.28125-7.199219-17.28125-11.679688-28.320312-11.679688-4.398438 0-8 3.601562-8 8v88h-152v-224h208zm0 0" fill="#69d6f4"/><path d="m290.71875 240.238281c7.839844 1.28125 13.28125 8.640625 13.28125 16.640625v31.121094c0-9.679688 8.640625-17.441406 18.71875-15.761719 7.839844 1.28125 13.28125 8.640625 13.28125 16.640625v99.921875c0 7.277344-2.480469 14.320313-7.039062 20l-24.960938 31.199219v48h-112v-48l-24.960938-31.199219c-4.558593-5.679687-7.039062-12.722656-7.039062-20v-100.800781c0-4.398438 3.601562-8 8-8 11.039062 0 21.039062 4.480469 28.320312 11.679688 7.199219 7.28125 11.679688 17.28125 11.679688 28.320312v-127.121094c0-6.398437 3.441406-12.398437 8.878906-15.117187 1.359375-.800781 2.800782-1.28125 4.402344-1.523438 10.078125-1.679687 18.71875 6.082031 18.71875 15.761719v48c0-9.679688 8.640625-17.441406 18.71875-15.761719 7.839844 1.28125 13.28125 8.640625 13.28125 16.640625v15.121094c0-7.121094 4.71875-13.199219 11.199219-15.28125 2.320312-.71875 4.878906-.957031 7.519531-.480469zm0 0" fill="#f0d0b4"/><path d="m312 104c0-35.34375-28.65625-64-64-64s-64 28.65625-64 64h-32c0-53.015625 42.984375-96 96-96s96 42.984375 96 96zm0 0" fill="#b4dd7f"/><path d="m464 96h-112.40625c-4.105469-53.609375-48.945312-96-103.59375-96s-99.488281 42.390625-103.59375 96h-112.40625c-17.648438 0-32 14.351562-32 32v288c0 17.648438 14.351562 32 32 32h152v48h128v-48h152c17.648438 0 32-14.351562 32-32v-288c0-17.648438-14.351562-32-32-32zm16 32v16h-192v-16c0-8.824219 7.175781-16 16-16h160c8.824219 0 16 7.175781 16 16zm-156.023438 136.328125c-4.089843-.65625-8.183593-.273437-11.976562 1.046875v-8.519531c0-12.128907-8.609375-22.671875-20.023438-24.527344-1.328124-.214844-2.65625-.289063-3.976562-.289063v-72.039062h192v208h-136v-79.144531c0-12.128907-8.609375-22.671875-20.023438-24.527344zm-84.433593-90.617187c-4.351563-3.710938-9.863281-5.613282-15.542969-5.613282v-40.097656c0-17.433594-14.023438-31.59375-31.367188-31.9375 3.871094-27.125 27.191407-48.0625 55.367188-48.0625s51.496094 20.9375 55.367188 48.0625c-17.34375.34375-31.367188 14.503906-31.367188 31.9375v94.320312c-3.304688-3.097656-7.441406-5.25-12.023438-6-4.089843-.664062-8.183593-.273437-11.976562 1.046876v-25.367188c0-7.046875-3.078125-13.710938-8.457031-18.289062zm-87.542969 114.289062v80h-136v-208h192v14.398438c-4.894531 4.601562-8 11.226562-8 18.457031v91.402343c-8.496094-7.617187-19.71875-12.257812-32-12.257812-8.824219 0-16 7.175781-16 16zm96-272c45.824219 0 83.535156 35.214844 87.59375 80h-16.066406c-4-35.945312-34.535156-64-71.527344-64s-67.527344 28.054688-71.527344 64h-16.066406c4.058594-44.785156 41.769531-80 87.59375-80zm-216 96h160c8.824219 0 16 7.175781 16 16v16h-192v-16c0-8.824219 7.175781-16 16-16zm-16 304v-32h136v4.777344c0 9.046875 3.113281 17.917968 8.769531 24.992187l14.589844 18.230469h-143.359375c-8.824219 0-16-7.175781-16-16zm280 64h-96v-42.808594l-26.742188-33.421875c-3.394531-4.242187-5.257812-9.570312-5.257812-14.992187v-100.777344c17.648438 0 32 14.351562 32 32v32h16v-159.144531c0-4.296875 2.894531-8.136719 6.601562-8.742188 2.421876-.371093 4.757813.246094 6.582032 1.789063 1.792968 1.523437 2.816406 3.746094 2.816406 6.097656v160h16v-112c0-2.351562 1.023438-4.574219 2.824219-6.097656 1.816406-1.542969 4.160156-2.183594 6.582031-1.789063 3.699219.605469 6.59375 4.445313 6.59375 8.742188v111.144531h16v-96c0-2.351562 1.023438-4.574219 2.824219-6.097656 1.824219-1.542969 4.152343-2.175782 6.582031-1.789063 3.699219.605469 6.59375 4.445313 6.59375 8.742188v95.144531h16v-64c0-2.351562 1.023438-4.574219 2.824219-6.097656 1.824219-1.542969 4.152343-2.175782 6.582031-1.789063 3.699219.605469 6.59375 4.445313 6.59375 8.742188v99.921875c0 5.429687-1.863281 10.75-5.257812 15l-26.742188 33.414062zm168-48h-143.359375l14.589844-18.238281c5.65625-7.066407 8.769531-15.9375 8.769531-24.984375v-4.777344h136v32c0 8.824219-7.175781 16-16 16zm0 0"/><path d="m104 248h16c4.40625 0 8 3.59375 8 8h16c0-13.230469-10.769531-24-24-24v-16h-16v16c-13.230469 0-24 10.769531-24 24s10.769531 24 24 24h16c4.40625 0 8 3.59375 8 8s-3.59375 8-8 8h-16c-4.40625 0-8-3.59375-8-8h-16c0 13.230469 10.769531 24 24 24v16h16v-16c13.230469 0 24-10.769531 24-24s-10.769531-24-24-24h-16c-4.40625 0-8-3.59375-8-8s3.59375-8 8-8zm0 0"/><path d="m392 296h-16c-4.40625 0-8-3.59375-8-8h-16c0 13.230469 10.769531 24 24 24v16h16v-16c13.230469 0 24-10.769531 24-24s-10.769531-24-24-24h-16c-4.40625 0-8-3.59375-8-8s3.59375-8 8-8h16c4.40625 0 8 3.59375 8 8h16c0-13.230469-10.769531-24-24-24v-16h-16v16c-13.230469 0-24 10.769531-24 24s10.769531 24 24 24h16c4.40625 0 8 3.59375 8 8s-3.59375 8-8 8zm0 0"/><path d="m80 400h64v16h-64zm0 0"/><path d="m352 400h64v16h-64zm0 0"/></svg>