<svg height="464pt" viewBox="0 -68 464 464" width="464pt" xmlns="http://www.w3.org/2000/svg"><path d="m400 0h-32c-10.386719 0-20.492188 3.367188-28.800781 9.601562l-83.199219 62.398438h-48l-83.199219-62.398438c-8.308593-6.234374-18.414062-9.601562-28.800781-9.601562h-32c-26.507812 0-48 21.492188-48 48v128h432v-128c0-26.507812-21.492188-48-48-48zm0 0" fill="#5d9aa4"/><path d="m400 16h-32c-10.386719 0-20.492188 3.367188-28.800781 9.601562l-83.199219 62.398438h-48l-83.199219-62.398438c-8.308593-6.234374-18.414062-9.601562-28.800781-9.601562h-32c-26.507812 0-48 21.492188-48 48v128h432v-128c0-26.507812-21.492188-48-48-48zm0 0" fill="#3b869e"/><path d="m424 256h32c4.417969 0 8-3.582031 8-8v-64c0-4.417969-3.582031-8-8-8h-24zm0 0" fill="#69b0bb"/><path d="m32 256h-24c-4.417969 0-8-3.582031-8-8v-64c0-4.417969 3.582031-8 8-8h24zm0 0" fill="#69b0bb"/><path d="m104 104h256c44.183594 0 80 35.816406 80 80v64c0 44.183594-35.816406 80-80 80h-256c-44.183594 0-80-35.816406-80-80v-64c0-44.183594 35.816406-80 80-80zm0 0" fill="#ebebeb"/><path d="m360 296h-94.054688c-6.367187 0-12.476562-2.527344-16.976562-7.03125-9.371094-9.371094-24.566406-9.371094-33.9375 0-4.5 4.503906-10.609375 7.03125-16.976562 7.03125h-94.054688c-26.507812 0-48-21.492188-48-48v-64c0-26.507812 21.492188-48 48-48h256c26.507812 0 48 21.492188 48 48v64c0 26.507812-21.492188 48-48 48zm0 0" fill="#b9b9b9"/><path d="m288 256h16v16h-16zm0 0" fill="#f7ba61"/><path d="m320 248h16v24h-16zm0 0" fill="#fbb540"/><path d="m352 240h16v32h-16zm0 0" fill="#fbb540"/><g fill="#d9d9d9"><path d="m96 160h40v16h-40zm0 0"/><path d="m152 160h16v16h-16zm0 0"/></g></svg>