<svg height="496pt" viewBox="-40 0 496 496" width="496pt" xmlns="http://www.w3.org/2000/svg"><path d="m328 488h-240c0-8.800781 3.601562-16.800781 9.359375-22.640625 5.839844-5.757813 13.839844-9.359375 22.640625-9.359375h176c17.679688 0 32 14.320312 32 32zm0 0" fill="#fcd770"/><path d="m208 344h32v112h-64v-112zm0 0" fill="#fcd770"/><path d="m408 320v16c0 4.398438-3.601562 8-8 8h-384c-4.398438 0-8-3.601562-8-8v-16c0-4.398438 3.601562-8 8-8h384c4.398438 0 8 3.601562 8 8zm0 0" fill="#48cfad"/><path d="m408 16v16c0 4.398438-3.601562 8-8 8h-384c-4.398438 0-8-3.601562-8-8v-16c0-4.398438 3.601562-8 8-8h384c4.398438 0 8 3.601562 8 8zm0 0" fill="#48cfad"/><path d="m392 40v272h-368v-272zm0 0" fill="#e6e9ed"/><g fill="#fcd770"><path d="m56 168h32v48h-32zm0 0"/><path d="m56 120h32v48h-32zm0 0"/><path d="m56 72h32v48h-32zm0 0"/></g><path d="m328 208h32c0 39.761719-32.238281 72-72 72v-32c22.078125 0 40-17.921875 40-40zm0 0" fill="#a0d468"/><path d="m288 248v32c-39.761719 0-72-32.238281-72-72h32c0 22.078125 17.921875 40 40 40zm0 0" fill="#ff826e"/><path d="m288 136v32c-22.078125 0-40 17.921875-40 40h-32c0-39.761719 32.238281-72 72-72zm0 0" fill="#ff826e"/><path d="m360 208h-32c0-22.078125-17.921875-40-40-40v-32c39.761719 0 72 32.238281 72 72zm0 0" fill="#ff826e"/><path d="m328 208c0 22.089844-17.910156 40-40 40s-40-17.910156-40-40 17.910156-40 40-40 40 17.910156 40 40zm0 0" fill="#fcd770"/><path d="m416 32v-16c0-8.824219-7.175781-16-16-16h-384c-8.824219 0-16 7.175781-16 16v16c0 8.824219 7.175781 16 16 16v256c-8.824219 0-16 7.175781-16 16v16c0 8.824219 7.175781 16 16 16h152v96h-48c-22.054688 0-40 17.945312-40 40v8h256v-8c0-22.054688-17.945312-40-40-40h-48v-96h152c8.824219 0 16-7.175781 16-16v-16c0-8.824219-7.175781-16-16-16v-256c8.824219 0 16-7.175781 16-16zm-400-16h384l.007812 16h-384.007812zm302.632812 464h-221.265624c3.304687-9.3125 12.199218-16 22.632812-16h176c10.433594 0 19.328125 6.6875 22.632812 16zm-86.632812-32h-16v-48h-16v48h-16v-96h16v32h16v-32h16zm168.015625-112h-384.015625v-16h384zm-16.015625-32h-352v-256h352zm0 0"/><path d="m96 272v-32h-16v32h-16v16h91.59375l54.652344-61.488281c8.386718 35.199219 40.027344 61.488281 77.753906 61.488281 44.113281 0 80-35.886719 80-80s-35.886719-80-80-80c-43.023438 0-78.128906 34.160156-79.839844 76.777344l-48.160156 54.183594v-58.960938h-16v72h-16v-56h-16v56zm128.550781-56h16.167969c3.386719 20.054688 19.226562 35.886719 39.28125 39.28125v16.167969c-28.894531-3.632813-51.816406-26.554688-55.449219-55.449219zm63.449219-40c17.648438 0 32 14.351562 32 32s-14.351562 32-32 32-32-14.351562-32-32 14.351562-32 32-32zm8 95.449219v-16.167969c20.054688-3.386719 35.886719-19.226562 39.28125-39.28125h16.167969c-3.632813 28.894531-26.554688 51.816406-55.449219 55.449219zm55.449219-71.449219h-16.167969c-3.386719-20.054688-19.226562-35.886719-39.28125-39.28125v-16.167969c28.894531 3.632813 51.816406 26.554688 55.449219 55.449219zm-71.449219-55.449219v16.167969c-20.054688 3.386719-35.886719 19.226562-39.28125 39.28125h-16.167969c3.632813-28.894531 26.554688-51.816406 55.449219-55.449219zm0 0"/><path d="m96 224v-160h-48v160zm-32-16v-32h16v32zm0-48v-32h16v32zm16-80v32h-16v-32zm0 0"/><path d="m352 64h16v16h-16zm0 0"/><path d="m320 64h16v16h-16zm0 0"/><path d="m288 64h16v16h-16zm0 0"/><path d="m112 72h128v16h-128zm0 0"/><path d="m112 104h16v16h-16zm0 0"/><path d="m144 104h96v16h-96zm0 0"/><path d="m112 136h16v16h-16zm0 0"/><path d="m144 136h64v16h-64zm0 0"/></svg>